<?xml version="1.0" standalone="no"?>
<!DOCTYPE svg PUBLIC "-//W3C//DTD SVG 20010904//EN"
 "http://www.w3.org/TR/2001/REC-SVG-20010904/DTD/svg10.dtd">
<svg version="1.0" xmlns="http://www.w3.org/2000/svg"
 width="500.000000pt" height="500.000000pt" viewBox="0 0 500.000000 500.000000"
 preserveAspectRatio="xMidYMid meet">
<metadata>
Created by potrace 1.14, written by Peter Selinger 2001-2017
</metadata>
<g transform="translate(0.000000,500.000000) scale(0.100000,-0.100000)"
fill="#000000" stroke="none">
<path d="M1865 4201 c-129 -75 -225 -225 -251 -391 -7 -46 -7 -267 0 -279 10
-15 21 -198 20 -331 0 -228 -42 -349 -182 -535 -228 -302 -320 -506 -314 -699
10 -289 294 -393 648 -238 128 56 211 76 335 78 111 1 127 -1 379 -59 143 -33
172 -39 239 -52 24 -4 108 -15 171 -21 61 -6 303 -6 350 0 25 4 65 8 90 10 58
6 182 26 190 31 3 2 17 6 31 8 43 8 112 40 175 79 160 100 270 289 300 513 3
28 8 53 10 57 2 4 0 9 -5 12 -5 3 -14 -30 -20 -74 -36 -244 -162 -434 -348
-527 -142 -71 -351 -103 -643 -98 -102 2 -196 6 -210 9 -13 3 -42 8 -65 11
-22 4 -112 22 -200 41 -88 19 -200 44 -250 54 -186 40 -350 21 -539 -62 -136
-60 -287 -84 -387 -63 -87 19 -164 78 -207 160 -23 44 -26 61 -27 150 0 77 6
117 24 175 45 145 136 304 296 515 38 50 83 122 102 160 73 155 92 374 57 645
-3 19 -7 94 -9 165 -7 216 31 335 144 458 137 148 236 149 445 7 12 -8 38 -25
57 -37 19 -12 39 -25 45 -30 5 -4 19 -14 30 -20 304 -191 476 -262 798 -329
191 -40 278 -77 401 -170 243 -182 433 -521 481 -854 2 -19 7 -45 9 -56 3 -12
5 -65 6 -118 0 -53 5 -96 9 -96 13 0 2 203 -16 300 -71 396 -298 746 -586 905
-91 50 -152 70 -277 96 -336 67 -541 153 -870 369 -261 170 -332 191 -436 131z"/>
<path d="M1911 4140 c-58 -27 -154 -127 -190 -198 -57 -115 -67 -179 -62 -389
1 -24 4 -43 9 -43 4 0 5 42 4 94 -7 195 38 334 144 443 75 77 114 97 184 97
71 0 117 -22 294 -139 138 -90 245 -154 317 -187 179 -85 271 -116 464 -158
220 -49 286 -74 400 -155 180 -128 328 -342 415 -602 54 -162 73 -293 67 -453
-9 -213 -62 -358 -179 -485 -114 -124 -209 -163 -498 -204 -69 -10 -444 -7
-495 3 -33 7 -115 23 -155 30 -14 2 -50 10 -79 16 l-55 13 36 18 c35 18 41 18
101 4 121 -28 253 -41 397 -39 113 1 289 12 300 19 3 2 21 6 40 9 296 48 474
244 515 567 42 328 -99 736 -337 978 -120 123 -295 220 -422 236 -27 3 -52 7
-55 10 -4 2 -18 6 -32 9 -219 42 -448 142 -689 301 -241 159 -304 181 -403
137 -58 -26 -150 -122 -187 -198 -60 -122 -66 -225 -34 -554 6 -60 5 -234 -1
-275 -19 -124 -66 -226 -158 -347 -248 -326 -332 -571 -253 -743 54 -117 151
-168 310 -161 81 4 144 22 284 81 97 41 193 57 295 52 49 -3 89 -7 90 -9 1 -2
13 -15 26 -30 21 -24 22 -27 5 -24 -187 35 -307 21 -500 -57 -160 -65 -257
-82 -358 -64 -216 38 -295 234 -202 499 39 111 108 230 223 384 114 154 149
216 180 320 25 82 27 102 26 259 0 94 -3 184 -6 200 -2 17 -5 45 -6 63 0 17
-5 32 -9 32 -9 0 -6 -61 7 -164 9 -66 7 -227 -4 -295 -3 -25 -17 -79 -31 -122
-25 -79 -60 -137 -204 -334 -83 -114 -176 -289 -205 -385 -26 -84 -28 -223 -4
-286 44 -117 147 -184 287 -187 111 -2 159 8 300 64 152 60 228 77 336 77 73
0 180 -16 224 -33 9 -3 49 -12 87 -20 39 -8 113 -23 165 -34 275 -57 514 -60
810 -9 335 57 533 324 531 718 0 63 -3 131 -5 150 -14 94 -19 120 -38 185 -35
124 -48 158 -98 260 -64 131 -115 207 -201 299 -141 151 -278 230 -471 271
-198 42 -211 45 -302 76 -193 66 -337 141 -563 291 -207 138 -285 162 -382
118z m230 -91 c24 -12 96 -57 159 -99 63 -42 137 -89 164 -105 39 -23 45 -30
32 -37 -19 -10 -33 -3 -194 105 -57 38 -124 78 -149 89 -60 27 -127 27 -179 0
-88 -45 -195 -198 -209 -299 -11 -84 -13 -123 -4 -123 5 0 9 22 9 48 0 100 45
207 124 290 83 89 159 111 248 73 68 -29 321 -198 308 -206 -16 -10 -25 -5
-142 71 -192 126 -251 130 -370 24 -56 -49 -114 -158 -127 -240 -10 -56 -7
-234 4 -293 3 -18 8 -86 10 -152 6 -203 -31 -319 -154 -482 -164 -217 -236
-377 -236 -523 1 -249 231 -331 537 -191 77 35 162 50 262 47 50 -2 95 -4 100
-5 5 0 -1 -12 -14 -26 -12 -13 -27 -22 -31 -19 -13 7 -149 7 -199 -1 -48 -7
-143 -39 -225 -75 -116 -50 -265 -59 -349 -20 -163 77 -187 275 -63 525 31 63
132 216 198 300 52 67 105 176 123 255 20 85 26 320 9 320 -5 0 -7 -56 -7
-125 3 -201 -36 -313 -168 -486 -180 -236 -256 -412 -245 -570 8 -116 58 -193
155 -235 83 -37 251 -23 366 30 107 49 187 69 290 72 54 1 104 0 111 -2 7 -3
10 -16 7 -30 -4 -21 -9 -24 -31 -20 -42 9 -131 10 -191 2 -56 -8 -134 -33
-248 -81 -216 -90 -415 -54 -490 89 -24 45 -27 62 -27 146 0 111 16 171 83
305 49 99 89 161 192 297 120 159 162 279 164 468 0 63 -4 153 -9 200 -10 108
-12 353 -3 403 22 106 133 257 222 298 52 25 125 20 187 -12z m44 -131 c48
-25 235 -151 235 -158 0 -23 -24 -14 -106 41 -173 115 -245 114 -356 -6 -38
-40 -83 -119 -94 -165 -11 -42 -13 -242 -3 -305 10 -64 13 -276 6 -310 -28
-119 -52 -169 -138 -285 -226 -303 -281 -533 -159 -659 84 -86 226 -94 407
-22 135 54 190 65 293 58 97 -7 104 -8 223 -38 78 -20 87 -25 87 -46 0 -13 -3
-23 -6 -23 -3 0 -52 11 -108 24 -253 61 -339 55 -561 -38 -251 -105 -459 -12
-456 204 0 36 2 72 4 80 15 59 23 83 50 145 37 86 90 172 178 288 132 175 161
267 155 498 -2 86 -6 161 -10 167 -12 20 -9 256 3 302 46 167 192 297 301 267
19 -5 44 -14 55 -19z m0 -61 c37 -13 215 -126 215 -136 0 -20 -16 -18 -54 8
-67 46 -143 82 -184 88 -52 7 -107 -22 -165 -87 -72 -80 -91 -140 -91 -290 0
-69 3 -154 7 -190 22 -191 -1 -321 -76 -432 -24 -35 -69 -99 -100 -142 -95
-130 -157 -283 -157 -382 0 -135 98 -229 233 -226 68 1 161 24 215 51 110 56
234 63 416 24 116 -25 128 -31 133 -62 2 -18 0 -19 -55 -5 -164 41 -301 56
-383 41 -20 -4 -68 -18 -105 -33 -185 -69 -266 -85 -344 -64 -118 31 -172 109
-166 240 6 127 67 260 207 450 82 111 121 183 139 260 16 66 18 220 6 350 -12
134 -13 217 -3 275 22 126 125 254 220 275 33 7 41 6 92 -13z m58 -82 c78 -41
137 -84 137 -100 0 -20 1 -20 -75 26 -92 56 -144 61 -207 20 -47 -30 -101 -94
-120 -141 -20 -51 -23 -78 -21 -200 7 -418 8 -391 -17 -455 -25 -66 -34 -80
-129 -211 -75 -103 -135 -226 -149 -303 -29 -161 48 -269 195 -273 84 -2 106
4 266 65 62 24 79 26 170 23 82 -4 250 -34 262 -48 8 -9 15 -48 9 -48 -3 0
-48 9 -98 20 -50 12 -107 24 -126 28 -94 21 -207 1 -359 -63 -84 -35 -193 -44
-254 -21 -182 69 -173 306 22 576 111 153 141 203 162 270 23 78 28 192 14
335 -24 238 -3 350 82 445 83 92 139 105 236 55z m576 -95 c100 -34 172 -53
305 -80 350 -72 607 -361 723 -815 32 -123 39 -319 17 -435 -52 -280 -206
-442 -474 -498 -195 -41 -495 -44 -693 -6 -120 22 -119 22 -106 46 11 20 28
21 122 2 150 -29 418 -26 612 7 377 63 548 393 460 882 -10 54 -58 193 -90
264 -108 235 -304 433 -490 497 -27 9 -102 28 -165 42 -225 48 -400 113 -439
163 l-24 31 78 -35 c43 -20 117 -49 164 -65z m-539 19 c75 -40 101 -62 92 -76
-5 -9 -21 -3 -55 19 -57 37 -121 47 -164 25 -42 -22 -99 -84 -122 -133 -33
-70 -39 -135 -25 -289 8 -87 8 -224 1 -255 -16 -70 -35 -111 -82 -178 -149
-213 -195 -309 -195 -412 0 -172 155 -243 351 -161 101 43 134 47 189 23 l45
-19 -45 2 c-53 2 -137 -18 -198 -46 -158 -72 -300 -62 -368 27 -27 35 -29 44
-29 128 0 88 2 94 47 186 25 52 79 140 120 195 141 190 146 218 123 646 -7
136 36 250 118 313 69 53 105 54 197 5z m278 -15 c12 -8 22 -22 22 -30 0 -12
-8 -10 -42 7 -31 16 -38 23 -27 30 19 12 21 11 47 -7z m133 -8 c73 -32 234
-83 289 -91 24 -4 48 -8 51 -11 4 -2 24 -6 45 -10 73 -11 189 -57 259 -102
407 -261 596 -967 355 -1322 -123 -181 -317 -252 -690 -252 -134 0 -356 22
-381 38 -4 2 -5 13 -2 25 5 19 10 20 52 14 127 -20 179 -23 336 -19 182 4 215
7 314 30 262 60 415 291 407 614 -9 323 -152 628 -379 808 -103 82 -184 116
-361 152 -99 20 -253 68 -321 101 -16 8 -31 22 -33 32 -4 22 -5 22 59 -7z
m-375 -49 c32 -19 54 -39 54 -50 0 -16 -5 -15 -48 7 -81 41 -115 38 -175 -14
-58 -51 -94 -127 -97 -200 -4 -91 -1 -150 8 -150 5 0 6 38 4 84 -5 102 13 164
64 225 40 46 81 71 116 71 31 0 128 -57 128 -75 0 -19 1 -19 -52 5 -50 22 -78
18 -125 -18 -72 -54 -101 -137 -94 -267 15 -274 8 -311 -90 -447 -110 -152
-148 -261 -122 -351 19 -65 64 -98 139 -102 30 -2 68 1 84 5 20 6 32 4 39 -4
13 -16 -17 -31 -98 -50 -55 -13 -65 -13 -127 -1 -59 11 -109 81 -107 153 0 12
-4 22 -8 22 -12 0 -10 -49 4 -87 42 -113 164 -139 333 -72 27 11 34 10 49 -4
15 -16 15 -17 -5 -17 -12 0 -52 -13 -89 -29 -164 -70 -288 -52 -338 47 -21 42
-25 114 -9 180 11 47 85 180 145 261 116 158 133 209 124 394 -12 251 -9 327
16 378 26 54 74 109 116 133 41 22 95 13 161 -27z m263 -10 c23 -28 -7 -29
-54 -2 -44 26 -51 35 -39 48 8 8 76 -26 93 -46z m181 -17 c78 -29 201 -61 282
-75 58 -10 131 -36 203 -74 81 -42 220 -173 278 -262 69 -107 144 -278 162
-370 23 -118 27 -159 27 -259 0 -191 -44 -317 -151 -432 -62 -68 -177 -129
-276 -147 -174 -32 -412 -34 -610 -5 -47 7 -42 3 -47 34 -3 28 -10 27 107 10
65 -10 272 -14 340 -6 106 12 146 18 174 26 17 5 31 7 31 5 0 -2 27 7 61 20
150 59 251 191 289 374 23 113 16 330 -12 384 -5 9 -7 17 -4 17 11 0 -57 178
-94 247 -123 228 -297 366 -520 412 -204 43 -345 92 -354 124 -5 22 -11 23
114 -23z m-183 -37 c9 -24 -4 -25 -44 -4 -56 29 -77 47 -69 59 8 13 105 -35
113 -55z m-12 -47 c19 -30 -5 -27 -59 5 -35 21 -56 41 -56 52 0 15 7 14 53
-12 28 -17 56 -37 62 -45z m170 42 c71 -27 200 -63 271 -74 245 -39 473 -267
574 -574 96 -295 59 -580 -96 -734 -86 -86 -186 -125 -364 -145 -87 -9 -351
-7 -405 4 -75 14 -90 21 -93 45 -3 20 -1 22 26 17 201 -40 527 -19 658 44 271
129 338 515 156 909 -49 108 -173 256 -266 318 -52 35 -156 78 -210 86 -122
19 -303 77 -323 103 -14 19 -17 37 -5 31 4 -1 39 -15 77 -30z m-227 -53 c49
-28 63 -51 31 -49 -26 2 -99 54 -99 70 0 18 -1 19 68 -21z m-178 5 c51 -26 55
-55 8 -44 -52 12 -74 8 -111 -22 -54 -43 -80 -104 -80 -188 0 -116 2 -136 14
-136 6 0 8 9 4 20 -4 12 -7 56 -7 99 0 61 5 87 22 122 44 84 102 116 165 87
40 -18 32 -43 -14 -43 -43 0 -77 -25 -111 -81 -21 -34 -39 -144 -23 -144 5 0
10 22 10 50 1 52 22 97 66 138 33 31 90 28 95 -5 2 -16 -3 -23 -26 -28 -36 -7
-66 -38 -87 -87 -18 -43 -19 -58 -5 -58 6 0 10 9 10 20 0 44 43 101 87 114 25
8 28 0 38 -87 l6 -57 -60 -63 c-33 -34 -62 -59 -65 -57 -2 3 -7 29 -9 58 -3
29 -8 56 -12 60 -4 4 -4 -26 0 -66 5 -51 3 -77 -5 -87 -19 -23 -26 -18 -27 23
-2 106 -4 122 -13 122 -6 0 -8 -13 -5 -32 15 -82 9 -146 -15 -182 -14 -19 -26
-34 -27 -33 -1 2 2 20 7 42 12 52 13 145 1 145 -5 0 -7 -17 -6 -37 4 -43 -10
-128 -27 -163 -7 -14 -36 -59 -65 -101 -119 -173 -142 -288 -72 -359 19 -19
45 -32 70 -36 44 -7 68 -29 52 -45 -19 -19 -118 -14 -154 7 -106 61 -85 213
58 409 28 39 59 86 69 105 24 48 41 162 33 235 -4 33 -6 105 -5 160 1 90 4
105 29 147 33 57 83 98 120 98 15 0 46 -9 67 -20z m425 -12 c33 -11 118 -33
189 -49 157 -36 241 -77 329 -163 175 -171 281 -430 276 -675 -3 -164 -45
-285 -128 -370 -111 -113 -229 -146 -531 -146 -137 0 -228 7 -264 21 -9 3 -16
17 -16 31 0 18 4 23 18 19 49 -14 232 -26 232 -15 0 5 -21 9 -47 9 -117 1
-207 19 -211 42 -4 20 33 26 98 16 72 -10 299 -1 376 15 94 20 160 55 213 112
84 91 117 208 107 375 -15 252 -152 495 -337 598 -61 34 -95 46 -194 68 -149
32 -205 53 -205 75 0 23 0 23 47 4 40 -15 170 -51 213 -59 141 -24 249 -88
350 -209 58 -69 124 -188 154 -278 48 -141 59 -321 28 -429 -68 -234 -214
-326 -524 -329 -32 -1 -58 -5 -58 -10 0 -12 148 -4 248 15 239 44 363 208 363
484 0 298 -170 604 -400 720 -48 24 -48 24 -144 45 -37 9 -73 16 -78 18 -6 1
-52 16 -102 32 -69 22 -93 35 -95 49 -3 15 0 17 14 12 11 -4 46 -17 79 -28z
m-264 -35 c48 -28 64 -53 33 -53 -21 0 -94 52 -94 68 0 17 6 16 61 -15z m27
-68 c1 -1 0 -9 -4 -18 -5 -14 -11 -13 -44 9 -21 14 -40 34 -43 45 -5 17 -1 16
41 -8 26 -15 48 -27 50 -28z m341 -21 c155 -40 215 -68 284 -132 107 -100 203
-271 224 -397 3 -16 9 -50 13 -75 9 -46 6 -181 -5 -235 -11 -55 -62 -149 -101
-188 -97 -97 -245 -129 -534 -118 l-55 3 50 22 c36 17 78 25 150 29 114 7 137
11 203 33 227 77 299 387 159 694 -53 117 -151 228 -245 278 -46 25 -138 53
-216 66 -6 1 -37 10 -68 20 -42 14 -58 24 -58 37 0 15 4 16 33 7 17 -5 92 -26
166 -44z m-387 -5 c21 -15 26 -25 19 -32 -8 -8 -19 -5 -38 9 -53 40 -36 62 19
23z m229 -5 c24 -8 87 -24 139 -36 148 -32 222 -77 310 -187 163 -203 205
-518 92 -686 -73 -108 -167 -149 -366 -160 l-59 -3 29 29 c17 16 41 31 54 34
14 2 41 6 60 9 183 27 285 170 276 385 -5 104 -20 160 -73 269 -78 161 -183
246 -348 283 -117 26 -158 41 -161 62 -3 21 -6 20 47 1z m-250 -34 c17 -10 27
-40 13 -40 -16 0 -44 23 -44 35 0 18 5 18 31 5z m236 -11 c15 -6 67 -19 115
-29 47 -11 110 -31 140 -46 78 -39 156 -124 206 -224 52 -106 74 -191 75 -295
1 -184 -78 -300 -229 -340 -86 -22 -96 -21 -82 11 8 17 34 36 75 56 117 55
167 145 166 298 -1 141 -53 281 -142 381 -50 57 -141 113 -196 122 -48 8 -120
26 -148 36 -18 7 -25 15 -21 26 7 18 6 18 41 4z m-241 -40 c3 -6 0 -18 -9 -26
-13 -13 -14 -12 -14 11 0 27 11 34 23 15z m239 -9 c14 -5 36 -12 48 -14 136
-26 199 -58 268 -135 65 -73 110 -167 135 -286 9 -41 6 -151 -6 -195 -18 -71
-67 -135 -125 -164 -28 -15 -53 -26 -57 -26 -17 0 18 79 53 118 95 108 96 291
4 458 -57 101 -142 167 -250 193 -109 26 -125 32 -125 46 0 17 18 19 55 5z
m47 -60 c97 -24 150 -53 205 -113 137 -148 164 -415 54 -521 l-28 -27 -2 52
c0 29 6 73 15 98 30 89 16 201 -40 307 -52 99 -113 146 -227 175 -46 11 -87
23 -91 25 -13 8 4 35 19 30 8 -3 51 -15 95 -26z m-79 -29 c13 -5 40 -12 61
-15 113 -18 195 -101 247 -253 20 -59 21 -184 1 -218 -10 -19 -12 -18 -25 15
-71 168 -271 243 -429 160 -21 -11 -38 -16 -38 -12 0 4 -5 36 -10 71 l-9 64
48 56 c26 31 60 75 76 99 29 44 38 48 78 33z m-222 -286 c9 -67 9 -67 -24
-105 -31 -37 -63 -108 -70 -160 -5 -33 -55 -61 -115 -65 -60 -4 -74 7 -66 54
17 88 92 204 184 281 29 25 58 50 64 56 15 16 16 15 27 -61z m-350 -107 c-5
-13 -19 -48 -31 -78 -26 -66 -29 -137 -8 -182 9 -18 23 -50 32 -71 16 -38 16
-38 -6 -32 -73 20 -101 56 -101 130 0 57 30 133 83 210 34 50 44 57 31 23z
m665 -16 c53 -27 99 -73 125 -125 23 -45 20 -50 -42 -67 -72 -20 -290 -12
-304 11 -3 5 -12 41 -20 81 -16 84 -14 88 55 112 57 20 133 15 186 -12z m-279
-64 c0 -7 4 -35 8 -61 l7 -48 -38 7 c-22 3 -41 8 -43 10 -7 6 20 61 40 83 23
24 26 25 26 9z m4 -124 c9 -2 19 -16 22 -30 3 -19 1 -23 -12 -20 -9 3 -33 8
-55 10 -47 6 -50 9 -37 34 11 20 31 22 82 6z m429 -34 c0 -16 -6 -32 -12 -37
-20 -12 -269 -14 -315 -2 -36 10 -43 15 -43 36 0 24 2 24 43 16 67 -13 237 -7
277 9 43 18 50 15 50 -22z m-565 9 c0 -8 -27 -23 -64 -36 -94 -33 -103 -33
-112 0 -7 27 -7 27 44 27 29 1 66 7 82 15 35 15 50 14 50 -6z m128 -37 c4 -1
13 -2 21 -2 13 0 28 -44 19 -54 -2 -2 -19 0 -36 4 -18 4 -44 11 -59 14 -21 5
-28 12 -28 30 0 22 3 23 38 16 20 -3 40 -7 45 -8z m-119 -8 c9 -23 2 -29 -33
-32 -16 -1 -50 -11 -75 -22 -25 -11 -47 -15 -47 -10 -4 24 -4 30 3 31 4 1 36
12 70 25 76 28 74 28 82 8z m360 -27 c50 -1 115 2 145 6 l53 8 -7 -28 c-3 -15
-11 -31 -17 -34 -26 -16 -281 -4 -325 15 -1 1 -4 13 -8 28 -7 27 -7 27 31 17
20 -6 78 -11 128 -12z m-340 -32 c3 -8 6 -18 6 -22 0 -5 -42 -11 -130 -16 -41
-3 -35 17 11 35 56 22 105 23 113 3z m95 4 c36 -7 52 -16 56 -30 4 -11 5 -22
3 -25 -4 -3 -118 16 -126 21 -1 1 -4 12 -7 24 -5 24 3 25 74 10z m304 -40 c59
0 107 -3 107 -8 0 -4 -11 -18 -25 -31 -23 -22 -29 -23 -117 -16 -99 7 -168 21
-168 36 0 4 -2 15 -6 23 -4 12 3 13 48 5 29 -5 101 -9 161 -9z m-358 -13 c22
-3 54 -10 72 -15 17 -5 34 -7 37 -4 3 3 8 -7 12 -21 3 -15 5 -29 2 -31 -2 -2
-33 3 -68 11 -35 8 -95 16 -133 18 -45 2 -74 9 -84 19 -14 14 -11 16 33 22 27
4 54 8 59 9 6 2 15 2 20 0 6 -1 28 -5 50 -8z m230 -46 c22 -5 70 -10 108 -11
37 -1 67 -3 67 -5 0 -2 -19 -13 -42 -25 -35 -18 -52 -20 -105 -15 -81 8 -88
12 -91 41 -2 28 4 29 63 15z m-170 -28 c59 -15 71 -22 73 -41 3 -21 0 -22 -30
-18 -83 12 -218 57 -218 72 0 12 111 3 175 -13z m214 -48 c1 -1 -13 -6 -33 -9
-39 -8 -66 -2 -66 15 0 8 16 9 48 4 26 -3 49 -8 51 -10z m-125 -83 c3 -4 -6
-6 -19 -3 -14 2 -25 6 -25 8 0 8 39 4 44 -5z m-30 -204 c52 -13 61 -23 47 -45
-5 -9 -19 -11 -43 -7 -44 8 -54 15 -62 43 -8 26 -7 26 58 9z m11 -67 c22 -8
24 -12 13 -29 -9 -15 -19 -19 -38 -15 -45 10 -49 13 -43 33 6 23 28 26 68 11z
m-44 -77 c-20 -9 -46 -11 -68 -7 l-36 7 33 17 c27 14 40 15 68 6 l35 -10 -32
-13z"/>
<path d="M1757 3493 c2 -43 6 -91 8 -108 2 -16 4 -40 4 -52 1 -13 5 -23 10
-23 5 0 7 13 5 28 -7 41 -12 119 -13 180 -1 28 -5 52 -10 52 -5 0 -7 -35 -4
-77z"/>
<path d="M2059 3113 c5 -140 -14 -200 -101 -321 -38 -53 -82 -122 -98 -152
-32 -63 -63 -160 -51 -160 5 0 14 21 20 46 17 67 54 136 131 244 91 126 118
204 114 318 -1 23 -2 60 -3 82 0 22 -4 40 -8 40 -5 0 -6 -44 -4 -97z"/>
<path d="M1321 1496 c-19 -6 -43 -24 -55 -39 -18 -24 -19 -29 -6 -37 10 -6 22
-4 35 6 54 40 95 42 130 8 30 -31 15 -49 -43 -50 -28 -1 -63 -2 -77 -3 -34 -1
-72 -43 -73 -80 -1 -34 39 -80 72 -82 48 -4 92 3 113 17 27 17 34 18 30 2 -1
-7 8 -14 21 -16 22 -3 22 -1 22 93 0 67 -5 107 -16 130 -23 49 -92 72 -153 51z
m119 -161 c0 -18 -26 -55 -47 -64 -68 -31 -146 12 -101 57 11 11 148 18 148 7z"/>
<path d="M1683 1499 c-18 -5 -35 -14 -38 -19 -9 -15 -25 -12 -25 5 0 8 -9 15
-20 15 -19 0 -20 -7 -20 -140 l0 -140 25 0 c25 0 25 1 25 85 0 46 5 95 11 109
14 30 60 51 94 42 43 -11 55 -44 56 -145 0 -91 0 -91 26 -91 l25 0 -4 109 c-3
91 -6 113 -23 131 -36 39 -82 53 -132 39z"/>
<path d="M2025 1502 c-65 -8 -115 -71 -115 -147 0 -136 176 -194 261 -86 l21
26 -26 3 c-15 2 -37 -5 -52 -17 -39 -30 -94 -28 -128 5 -48 49 -38 54 93 54
l120 0 -5 28 c-9 53 -25 87 -47 103 -30 22 -84 35 -122 31z m69 -52 c14 -5 32
-23 41 -40 l16 -30 -96 0 c-61 0 -95 4 -95 11 0 6 13 24 29 40 31 30 61 36
105 19z"/>
<path d="M2345 1490 c-28 -14 -35 -15 -35 -4 0 8 -9 14 -20 14 -19 0 -20 -7
-20 -140 l0 -140 23 0 c23 0 24 2 23 83 -2 119 31 170 98 153 40 -10 56 -53
56 -151 0 -83 1 -85 23 -85 23 0 24 2 25 90 0 66 5 98 16 115 32 48 106 42
126 -11 6 -14 10 -63 10 -110 0 -83 0 -84 25 -84 l24 0 -2 104 c-2 79 -7 110
-21 131 -35 53 -114 65 -168 25 -28 -21 -28 -21 -55 -1 -40 28 -86 32 -128 11z"/>
<path d="M2896 1498 c-67 -15 -106 -65 -106 -138 0 -81 41 -130 122 -145 48
-9 97 8 133 45 22 23 29 41 32 82 8 112 -71 180 -181 156z m105 -64 c63 -57
24 -173 -58 -174 -101 -1 -145 107 -72 174 27 24 38 27 71 23 22 -3 48 -13 59
-23z"/>
<path d="M3263 1499 c-18 -5 -35 -14 -38 -19 -9 -15 -25 -12 -25 5 0 8 -9 15
-20 15 -19 0 -20 -7 -20 -141 0 -140 0 -140 23 -137 20 3 22 9 23 63 1 33 2
74 3 91 1 38 44 84 77 84 63 0 84 -38 84 -155 0 -84 0 -85 25 -85 25 0 25 1
24 88 0 48 -5 102 -12 121 -20 58 -81 87 -144 70z"/>
<path d="M3571 1493 c-59 -29 -76 -58 -76 -131 0 -94 35 -138 115 -148 48 -6
104 17 136 54 l24 27 -25 3 c-14 2 -36 -6 -51 -17 -38 -30 -98 -28 -129 4 -49
48 -37 55 90 55 l115 0 0 30 c0 95 -113 164 -199 123z m102 -45 c26 -13 46
-38 47 -55 0 -10 -24 -13 -90 -13 -93 0 -104 6 -77 41 29 37 80 49 120 27z"/>
</g>
</svg>
