<?xml version="1.0" standalone="no"?>
<!DOCTYPE svg PUBLIC "-//W3C//DTD SVG 20010904//EN"
 "http://www.w3.org/TR/2001/REC-SVG-20010904/DTD/svg10.dtd">
<svg version="1.0" xmlns="http://www.w3.org/2000/svg"
 width="1011.000000pt" height="1011.000000pt" viewBox="0 0 1011.000000 1011.000000"
 preserveAspectRatio="xMidYMid meet">
<metadata>
Created by potrace 1.14, written by Peter Selinger 2001-2017
</metadata>
<g transform="translate(0.000000,1011.000000) scale(0.100000,-0.100000)"
fill="#000000" stroke="none">
<path d="M4766 10095 c-13 -14 -14 -81 -9 -558 3 -298 10 -550 15 -559 5 -10
17 -18 28 -18 11 0 23 8 27 18 4 9 6 260 3 558 -4 438 -8 544 -19 557 -17 21
-25 21 -45 2z"/>
<path d="M2806 9095 c-18 -18 -19 -25 -8 -41 4 -6 164 -118 356 -249 361 -247
376 -254 384 -198 2 16 -63 65 -344 258 -192 130 -353 239 -360 242 -6 2 -19
-3 -28 -12z"/>
<path d="M6409 8871 c-305 -200 -364 -243 -367 -264 -8 -63 24 -47 400 200
373 245 398 266 350 292 -17 9 -75 -26 -383 -228z"/>
<path d="M4720 8460 c-90 -11 -183 -36 -256 -70 -36 -16 -72 -26 -84 -23 -14
4 -20 1 -20 -10 0 -9 -26 -34 -57 -56 -66 -44 -184 -164 -230 -231 -46 -68
-78 -136 -108 -230 -40 -125 -47 -310 -15 -446 83 -360 398 -635 778 -679 41
-5 62 -11 59 -19 -3 -6 -235 -555 -517 -1221 -282 -665 -528 -1246 -546 -1290
-18 -44 -408 -968 -868 -2054 -654 -1548 -833 -1979 -825 -1993 9 -17 50 -18
853 -18 686 0 846 2 854 13 7 7 51 193 100 413 l88 399 935 2 934 3 94 -398
c52 -218 98 -408 103 -421 l9 -24 637 4 c586 4 642 3 697 -14 341 -100 726 39
911 329 20 31 51 93 68 138 l31 81 3 1148 2 1149 65 -60 c113 -107 235 -130
507 -98 262 31 376 15 477 -64 64 -51 112 -147 146 -295 28 -117 37 -135 66
-135 29 0 36 31 49 201 18 252 -10 457 -82 592 -71 133 -187 180 -528 212
-298 27 -394 46 -492 96 -126 64 -181 151 -203 322 l-6 47 -235 0 -234 0 0
-1151 0 -1151 -22 6 c-141 41 -180 48 -288 48 -145 1 -264 -26 -385 -87 -85
-42 -86 -43 -95 -22 -8 22 -1079 2557 -1255 2972 -106 251 -975 2304 -982
2321 -2 7 28 15 86 23 358 49 642 292 748 638 23 78 26 105 26 228 0 112 -4
156 -22 219 -102 376 -426 635 -826 660 -44 2 -109 1 -145 -4z m389 -321 c129
-27 204 -152 157 -262 -29 -69 -125 -127 -211 -127 -86 0 -182 58 -211 127
-45 107 22 226 144 259 60 16 61 16 121 3z m-32 -2157 c138 -328 255 -604 258
-613 5 -12 -7 -10 -52 12 -238 114 -679 118 -920 9 -35 -16 -61 -25 -59 -21 5
7 402 947 479 1133 18 43 34 78 37 78 3 0 118 -269 257 -598z m30 -1478 c201
-29 414 -104 573 -200 154 -93 126 -42 424 -750 146 -347 266 -635 266 -638 0
-4 -12 1 -27 12 -173 122 -577 211 -1095 243 -165 10 -198 15 -202 28 -3 9
-46 227 -96 485 -50 259 -96 478 -101 488 -12 23 -55 41 -79 33 -43 -14 -50
-40 -145 -528 -52 -267 -95 -488 -95 -491 0 -3 -33 -6 -72 -6 -436 -1 -919
-97 -1131 -224 l-55 -33 15 36 c8 20 132 313 274 651 l260 615 59 57 c200 192
751 292 1227 222z m-157 -1209 c83 -429 153 -788 156 -797 5 -17 -15 -18 -316
-18 l-322 0 4 23 c2 12 74 379 159 815 89 461 157 785 161 775 4 -10 75 -369
158 -798z m435 -1515 c931 -45 1529 -192 1635 -401 l19 -37 -63 -65 c-78 -79
-139 -180 -174 -284 -36 -110 -37 -283 -4 -393 45 -143 137 -277 250 -362 l60
-45 -525 -8 c-288 -4 -526 -5 -528 -3 -2 2 -47 186 -100 408 -53 223 -102 410
-108 417 -9 8 -273 13 -989 18 l-977 7 -11 -23 c-9 -22 -29 -111 -149 -649
l-36 -165 -783 -3 c-430 -1 -782 0 -782 2 0 22 514 1214 531 1233 121 128 483
243 954 302 157 20 493 48 630 54 183 8 972 6 1150 -3z"/>
<path d="M6363 7610 c-26 -11 -32 -54 -9 -63 7 -3 289 -3 626 0 654 7 655 7
630 54 -10 18 -28 19 -618 18 -337 0 -617 -4 -629 -9z"/>
<path d="M2230 7593 c-157 -3 -187 -6 -197 -20 -9 -11 -9 -21 -2 -34 9 -18 26
-19 307 -18 163 1 428 5 587 8 l290 6 0 30 0 30 -400 0 c-220 0 -483 -1 -585
-2z"/>
</g>
</svg>
